<?xml version="1.0" encoding="UTF-8"?>
<svg version="1.1" xmlns="http://www.w3.org/2000/svg" width="701" height="402">
<path d="M0 0 C0.33 12.54 0.66 25.08 1 38 C4.44299977 39.72149988 8.51860492 39.69752444 12.32617188 40.07421875 C16.60830605 40.57401285 19.64636124 41.2547555 23 44 C23.62361908 47.06701279 23.62361908 47.06701279 23.62145996 50.91937256 C23.62784878 51.62753498 23.6342376 52.33569741 23.64082003 53.0653193 C23.65611417 55.44483261 23.63558154 57.82269242 23.61523438 60.20214844 C23.61873441 61.90550286 23.62439165 63.60885402 23.63204956 65.31219482 C23.64632862 69.94478682 23.62920303 74.57678742 23.60576439 79.20932293 C23.58568519 84.05607085 23.59153364 88.90279348 23.59387207 93.74957275 C23.59381845 101.89402028 23.5740352 110.03823624 23.54199219 118.18261719 C23.50514657 127.59329375 23.49630933 137.00366631 23.5032897 146.41440558 C23.50960133 155.46731398 23.49882499 164.52011829 23.47932434 173.57300568 C23.47115789 177.42451717 23.46843944 181.27597539 23.47001648 185.12749481 C23.47089719 189.66820947 23.45662892 194.20863646 23.43078995 198.74927521 C23.4236429 200.41370753 23.42153748 202.07817049 23.42490768 203.74261475 C23.42863785 206.01961691 23.41382243 208.29578675 23.39440918 210.57269287 C23.39068047 211.8454797 23.38695175 213.11826653 23.38311005 214.42962265 C22.67358273 221.04203153 20.15946417 225.6804486 15 230 C9.89115035 233.17895641 5.95514584 233.38053662 0.140625 233.22265625 C-1.13958023 233.20774643 -1.13958023 233.20774643 -2.44564819 233.1925354 C-4.26936549 233.17112363 -6.09302023 233.14367091 -7.91656494 233.11068726 C-12.68632419 233.0295696 -17.45620499 233.009737 -22.2265625 232.9921875 C-23.63595596 232.98656044 -23.63595596 232.98656044 -25.07382202 232.9808197 C-59.96044773 232.9150176 -93.8938841 240.01091239 -125 256 C-131.71842393 259.39384302 -137.53526063 261.37106801 -145.11743164 259.46875 C-150.3681035 257.72779066 -154.96698506 255.50198448 -159.75 252.75 C-194.02292738 233.98814723 -234.95790933 232.41653351 -273.09399414 233.11010742 C-274.09162781 233.12297287 -275.08926147 233.13583832 -276.11712646 233.14909363 C-277.99702726 233.17396961 -279.87682151 233.21127113 -281.75616455 233.26338196 C-288.59515659 233.34183898 -292.93018124 231.95352103 -298.75 228.25 C-302.48932254 224.51067746 -303.83963515 220.54249666 -304.37473011 215.3955946 C-304.3744785 213.4623431 -304.3744785 213.4623431 -304.3742218 211.49003601 C-304.37819621 210.76676095 -304.38217061 210.0434859 -304.38626546 209.29829341 C-304.39583454 206.89226141 -304.38410379 204.48682537 -304.37231445 202.08081055 C-304.3747441 200.34905275 -304.37846509 198.61729636 -304.38337708 196.88554382 C-304.39276256 192.19581567 -304.38338223 187.50629705 -304.37004495 182.8165853 C-304.35871515 177.90879526 -304.36283891 173.0010153 -304.36479187 168.09321594 C-304.36567394 159.85760071 -304.35460908 151.62206794 -304.33618164 143.38647461 C-304.31498023 133.85637382 -304.3115121 124.3263935 -304.3177436 114.79627389 C-304.32343005 105.63123904 -304.31780237 96.46624674 -304.30657005 87.30121803 C-304.3019181 83.39813261 -304.30105273 79.49507315 -304.3031559 75.5919857 C-304.30503409 71.00287856 -304.29697127 66.41389477 -304.2810955 61.82481575 C-304.27683984 60.13730759 -304.27601066 58.44978694 -304.27878571 56.7622757 C-304.28198953 54.46639532 -304.27297196 52.17088779 -304.26069641 49.87504578 C-304.25864354 48.58809657 -304.25659067 47.30114737 -304.25447559 45.9751997 C-304 43 -304 43 -302 41 C-299.11954947 40.17059589 -296.14537534 39.78492226 -293.1875 39.3125 C-292.37990234 39.17005859 -291.57230469 39.02761719 -290.74023438 38.88085938 C-286.56178529 38.19300658 -283.14154085 37.74829698 -279 39 C-278.97311849 40.64574566 -278.95365877 42.29161413 -278.9375 43.9375 C-278.92589844 44.85402344 -278.91429687 45.77054688 -278.90234375 46.71484375 C-279 49 -279 49 -280 50 C-282.18292774 50.23481693 -284.37203174 50.41363323 -286.5625 50.5625 C-287.76003906 50.64628906 -288.95757812 50.73007813 -290.19140625 50.81640625 C-291.11824219 50.87699219 -292.04507813 50.93757813 -293 51 C-293.02344638 70.13358247 -293.04103651 89.26716199 -293.05181217 108.40075588 C-293.05695032 117.28646261 -293.06394529 126.17216036 -293.07543945 135.05786133 C-293.08546257 142.81010271 -293.09187143 150.56233759 -293.09408849 158.31458527 C-293.09538275 162.41253055 -293.098386 166.51045725 -293.10573006 170.60839653 C-293.11261116 174.48005593 -293.11459288 178.35168941 -293.11310768 182.22335434 C-293.11337866 183.63042785 -293.11531106 185.0375024 -293.11920547 186.44457054 C-293.13923824 194.06842985 -292.99589801 201.67400223 -292.61790466 209.28797913 C-292.58748803 210.01343758 -292.5570714 210.73889603 -292.52573305 211.48633808 C-292.32010564 215.13205628 -292.07201145 216.89198282 -290 220 C-287.26662704 220.91112432 -285.78592877 221.11061149 -282.98876953 221.06591797 C-282.18060791 221.05630539 -281.37244629 221.04669281 -280.53979492 221.03678894 C-279.22458862 221.01471123 -279.22458862 221.01471123 -277.8828125 220.9921875 C-275.99105904 220.97186317 -274.09929372 220.95261972 -272.20751953 220.93432617 C-271.21447815 220.92388275 -270.22143677 220.91343933 -269.19830322 220.90267944 C-228.39464253 220.53518475 -183.04610724 222.83548595 -149 248 C-141.70851587 250.43049471 -135.04526923 249.84686304 -128.20263672 246.49145508 C-125.45333785 245.05351914 -122.72241856 243.58564276 -120.00390625 242.09033203 C-88.46300879 224.9288252 -51.62614288 220.64325782 -16.16015625 220.9921875 C-15.37282608 220.99943848 -14.58549591 221.00668945 -13.77430725 221.01416016 C-10.00471365 221.05892146 -6.2410678 221.14469285 -2.47387695 221.28613281 C-1.1258174 221.31850964 0.22224557 221.35074427 1.5703125 221.3828125 C2.74352051 221.42809082 3.91672852 221.47336914 5.12548828 221.52001953 C8.13841502 221.30335221 8.13841502 221.30335221 9.65473652 218.89420795 C11.26596009 215.42781187 11.38412068 212.99085499 11.39872742 209.1726532 C11.40537424 208.49867849 11.41202107 207.82470378 11.41886932 207.13030559 C11.43747364 204.87927731 11.43489588 202.62878177 11.43237305 200.37768555 C11.44139181 198.76119742 11.45171931 197.14471613 11.46325684 195.52824402 C11.49083965 191.14436434 11.50011309 186.76061437 11.50611091 182.37665915 C11.51549123 177.793519 11.54169435 173.21047587 11.56611633 168.62739563 C11.6097944 159.95066939 11.63833334 151.27396196 11.66143972 142.59715921 C11.68848437 132.71809442 11.73239634 122.83912717 11.77772844 112.960132 C11.87059345 92.64014046 11.94226571 72.32011973 12 52 C8.37 51.67 4.74 51.34 1 51 C1.00138269 52.21866918 1.00138269 52.21866918 1.00279331 53.46195793 C1.02485325 73.20740319 1.04141386 92.95284634 1.05181217 112.69830132 C1.05697404 122.24695146 1.06401468 131.7955934 1.07543945 141.34423828 C1.0853896 149.66436427 1.09185422 157.98448432 1.09408849 166.30461609 C1.09539504 170.71227957 1.09847734 175.11992604 1.10573006 179.52758408 C1.11249548 183.67251461 1.11461589 187.81742104 1.11310768 191.96235657 C1.11338377 193.48699703 1.11538581 195.01163826 1.11920547 196.53627396 C1.12415086 198.61127931 1.12299514 200.68619264 1.12025452 202.76119995 C1.12163721 204.50615407 1.12163721 204.50615407 1.12304783 206.28635979 C1 209 1 209 0 211 C-1.18251343 210.98428955 -1.18251343 210.98428955 -2.38891602 210.96826172 C-41.57895172 210.51901078 -80.89099979 213.86241439 -115.94921875 233.1171875 C-118 234 -118 234 -122 234 C-122.89163852 230.17116186 -123.13503439 226.60967399 -123.15631104 222.68205261 C-123.1651683 221.40778915 -123.17402557 220.1335257 -123.18315125 218.82064819 C-123.18771137 217.41583309 -123.19208437 216.01101738 -123.19628906 214.60620117 C-123.20415615 213.12092442 -123.21230647 211.63564914 -123.22071838 210.15037537 C-123.28966883 196.61674001 -123.28416463 183.08258003 -123.26091385 169.54882336 C-123.24471037 159.55076707 -123.26414926 149.5541044 -123.32984567 139.55624408 C-123.37296975 132.51806559 -123.37410486 125.48060995 -123.34467673 118.44236547 C-123.32833463 114.24179017 -123.33068394 110.04316741 -123.37879181 105.84279442 C-123.42330426 101.88949881 -123.415707 97.93964995 -123.36887932 93.98641396 C-123.36072123 92.54006166 -123.37116964 91.09345984 -123.40209389 89.64741516 C-123.61911435 78.76156306 -123.61911435 78.76156306 -119.61701202 74.40735817 C-116.82677953 72.34495488 -114.0556776 70.63688817 -111 69 C-109.51471303 68.09607596 -108.03114026 67.18931593 -106.55078125 66.27734375 C-105.14362502 65.48732977 -103.7307498 64.70742093 -102.3125 63.9375 C-101.15669434 63.30654419 -101.15669434 63.30654419 -99.97753906 62.6628418 C-72.53033627 47.90025622 -41.24057943 39 -10 39 C-10 29.76 -10 20.52 -10 11 C-53.97379658 16.20742328 -95.66494075 30.59384526 -127.09389305 63.17034626 C-129.51400888 66.76305642 -129.5018633 68.92012541 -129.50552368 73.23149109 C-129.5116138 73.94897374 -129.51770392 74.6664564 -129.52397859 75.40568095 C-129.53956608 77.80423309 -129.52679625 80.20178486 -129.51416016 82.6003418 C-129.51962129 84.32195666 -129.5268629 86.04356666 -129.53575134 87.76516724 C-129.55108592 91.46913099 -129.5538917 95.17281777 -129.54698563 98.87680626 C-129.53620805 104.72932666 -129.5535691 110.58155692 -129.57479858 116.43403625 C-129.60505689 125.68569287 -129.61675361 134.93726362 -129.62037504 144.18896562 C-129.62702654 160.77082368 -129.65593482 177.35262276 -129.7054714 193.93440753 C-129.72200816 199.75696871 -129.72737874 205.57940503 -129.72388101 211.40198743 C-129.72344527 215.01634511 -129.73098863 218.63065526 -129.74055672 222.24499893 C-129.74324882 223.92605841 -129.7424721 225.6071274 -129.73804665 227.28818321 C-129.73243979 229.57539797 -129.73891322 231.86226569 -129.7484436 234.14945984 C-129.74894683 236.07271859 -129.74894683 236.07271859 -129.74946022 238.03483105 C-130 241 -130 241 -132 243 C-134.68839385 243.26991906 -137.29141936 243.08737357 -140 243 C-141.30455299 148.13361949 -141.30455299 148.13361949 -141.01635742 105.06109619 C-141.00010171 102.01903407 -140.99537367 98.97716098 -140.99414062 95.93505859 C-140.99091271 91.27881256 -140.95842259 86.62377332 -140.90032959 81.96789551 C-140.88380721 80.31733011 -140.87672927 78.66663515 -140.88043213 77.01599121 C-140.89177532 67.85117929 -140.40827389 61.01196595 -134 54 C-133.18660156 53.04351562 -132.37320313 52.08703125 -131.53515625 51.1015625 C-103.82177602 23.34440126 -65.66317012 7.23496995 -27.4375 0.6875 C-26.43807373 0.51573242 -25.43864746 0.34396484 -24.40893555 0.16699219 C-15.8592984 -1.20599455 -8.59390556 -1.22770079 0 0 Z M-33.875 52.0625 C-35.03612305 52.25549683 -35.03612305 52.25549683 -36.22070312 52.45239258 C-57.47145566 56.25877737 -77.85333266 63.20123331 -96.75 73.625 C-97.38172119 73.97288574 -98.01344238 74.32077148 -98.66430664 74.67919922 C-100.48723387 75.72820764 -102.23635345 76.85438806 -104 78 C-104.91408426 78.53366904 -104.91408426 78.53366904 -105.84663486 79.07811928 C-109.00150977 81.24535777 -110.73802635 82.88680628 -111.6319561 86.6853447 C-111.86379037 90.13629488 -111.8653535 93.52374232 -111.79467773 96.98193359 C-111.79569992 98.28978821 -111.79672211 99.59764282 -111.79777527 100.94512939 C-111.79977886 104.51971927 -111.75870889 108.09265557 -111.70975757 111.66686201 C-111.66591417 115.40637227 -111.66187991 119.14592302 -111.65357971 122.88565063 C-111.63184717 129.96192563 -111.57443815 137.03744105 -111.50413328 144.11338198 C-111.42581452 152.17130135 -111.3873846 160.22925755 -111.35226524 168.28746295 C-111.27915242 184.85875285 -111.15607677 201.42927941 -111 218 C-110.35202957 217.7723848 -109.70405914 217.54476959 -109.03645325 217.31025696 C-106.05237007 216.26335453 -103.06721143 215.21955134 -100.08203125 214.17578125 C-98.55358582 213.63878601 -98.55358582 213.63878601 -96.9942627 213.09094238 C-68.22939372 203.04652381 -40.40447535 200.52022377 -10 199 C-10 150.16 -10 101.32 -10 51 C-22.07312719 50.84735646 -22.07312719 50.84735646 -33.875 52.0625 Z " fill="#000000" transform="translate(495,21)"/>
<path d="M0 0 C0.99 0.33 1.98 0.66 3 1 C3 19.81 3 38.62 3 58 C6.29037914 55.36769669 8.60469013 53.51164131 11.1875 50.4375 C12.07888672 49.41269531 12.07888672 49.41269531 12.98828125 48.3671875 C14.47016517 46.62345613 15.92159772 44.85373418 17.35546875 43.0703125 C24.62018649 34.39770373 24.62018649 34.39770373 29.75 33.75 C33.21866336 33.78080518 36.61798132 34.21953415 40 35 C39.49686152 39.17316917 38.46999621 40.97722084 35.3671875 43.77734375 C34.64402344 44.45603516 33.92085938 45.13472656 33.17578125 45.83398438 C31.63960513 47.238451 30.09789825 48.63689157 28.55078125 50.02929688 C24.25111567 53.81105113 24.25111567 53.81105113 22.79296875 59.0546875 C24.2103396 62.51325586 25.70630829 65.87718072 27.4375 69.1875 C27.78296875 69.86586914 28.1284375 70.54423828 28.484375 71.24316406 C30.52616435 75.23114662 32.63046732 79.18389344 34.75390625 83.12890625 C35.21031494 83.98137939 35.66672363 84.83385254 36.13696289 85.7121582 C37.03297524 87.38044556 37.93689882 89.0445124 38.84936523 90.70385742 C39.26001221 91.46674072 39.67065918 92.22962402 40.09375 93.015625 C40.46177734 93.68883789 40.82980469 94.36205078 41.20898438 95.05566406 C42 97 42 97 42 101 C39.57038821 102.2148059 37.83615884 102.23607267 35.125 102.3125 C33.82949219 102.36857422 33.82949219 102.36857422 32.5078125 102.42578125 C29.11685684 101.85005825 28.23493506 100.59876786 26 98 C24.751514 95.76310004 23.62402197 93.58028689 22.546875 91.265625 C22.24179016 90.62759949 21.93670532 89.98957397 21.62237549 89.33221436 C20.65692112 87.30849851 19.70333529 85.27944862 18.75 83.25 C18.09452802 81.87072374 17.43828588 80.49181321 16.78125 79.11328125 C15.17856597 75.74637356 13.58647221 72.37458237 12 69 C11.21625 69.78375 10.4325 70.5675 9.625 71.375 C8.08333333 72.91666667 6.54166667 74.45833333 5 76 C4.64684999 78.04677226 4.64684999 78.04677226 4.62109375 80.39453125 C4.58693359 81.26787109 4.55277344 82.14121094 4.51757812 83.04101562 C4.49115234 83.95560547 4.46472656 84.87019531 4.4375 85.8125 C4.06942887 96.78415232 4.06942887 96.78415232 3 101 C1.39679026 101.19551338 -0.20762986 101.38111983 -1.8125 101.5625 C-3.15248047 101.71912109 -3.15248047 101.71912109 -4.51953125 101.87890625 C-7 102 -7 102 -10 101 C-10 68 -10 35 -10 1 C-6.85658007 -0.57170996 -3.44228549 -0.23175783 0 0 Z " fill="#000000" transform="translate(363,285)"/>
<path d="M0 0 C1.22976562 -0.01611328 2.45953125 -0.03222656 3.7265625 -0.04882812 C14.05041091 -0.05430787 24.13758854 0.60786429 31.83984375 8.18359375 C38.01908121 16.10755708 38.42857641 25.63696305 37.5 35.3125 C36.18994252 42.54488346 32.60739268 48.91987419 26.90625 53.62890625 C18.41372672 59.05691051 8.18580293 58.53738635 -1.5 58.3125 C-1.49476318 59.04887695 -1.48952637 59.78525391 -1.48413086 60.54394531 C-1.46333133 63.88345485 -1.45033032 67.22295074 -1.4375 70.5625 C-1.42912109 71.72136719 -1.42074219 72.88023437 -1.41210938 74.07421875 C-1.40888672 75.18925781 -1.40566406 76.30429687 -1.40234375 77.453125 C-1.39710693 78.47954102 -1.39187012 79.50595703 -1.38647461 80.56347656 C-1.5 83.3125 -1.5 83.3125 -2.5 87.3125 C-6.79 87.3125 -11.08 87.3125 -15.5 87.3125 C-17.05388112 84.20473777 -16.65615257 80.90971346 -16.66113281 77.49804688 C-16.66609772 76.69142105 -16.67106262 75.88479523 -16.67617798 75.0537262 C-16.69081008 72.37955887 -16.69760233 69.70545081 -16.703125 67.03125 C-16.70887433 65.17801918 -16.71463209 63.32478839 -16.72039795 61.47155762 C-16.73091006 57.58438845 -16.73675176 53.69723998 -16.74023438 49.81005859 C-16.74572824 44.81948907 -16.76977433 39.82919113 -16.79820633 34.83870697 C-16.81678966 31.01095773 -16.82203594 27.18327457 -16.82357025 23.35548401 C-16.82660563 21.51500458 -16.83466376 19.67452655 -16.84775543 17.83409119 C-16.86473099 15.26483188 -16.86295712 12.6962451 -16.85644531 10.12695312 C-16.8656601 9.36117447 -16.87487488 8.59539581 -16.8843689 7.80641174 C-16.86749268 5.69055176 -16.86749268 5.69055176 -16.5 2.3125 C-11.52716922 -1.00272052 -5.84188259 -0.01493324 0 0 Z M-1.5 13.3125 C-2.89471542 16.10193085 -2.62973765 18.41010419 -2.6328125 21.52734375 C-2.63410156 22.77064453 -2.63539062 24.01394531 -2.63671875 25.29492188 C-2.63285156 26.60009766 -2.62898438 27.90527344 -2.625 29.25 C-2.62886719 30.55130859 -2.63273437 31.85261719 -2.63671875 33.19335938 C-2.63542969 34.43794922 -2.63414063 35.68253906 -2.6328125 36.96484375 C-2.63168457 38.10945068 -2.63055664 39.25405762 -2.62939453 40.43334961 C-2.62823513 43.38332167 -2.62823513 43.38332167 -1.5 46.3125 C9.66222534 46.6904735 9.66222534 46.6904735 19.4375 42 C23.92618198 36.15111135 24.1934791 30.46794348 23.5 23.3125 C22.13141123 19.66292995 20.63689937 16.69654352 17.5 14.3125 C13.67870783 12.96163158 9.74673329 13.2008908 5.75 13.25 C5.05261719 13.25451172 4.35523438 13.25902344 3.63671875 13.26367188 C1.92444197 13.2753998 0.21220967 13.29333347 -1.5 13.3125 Z " fill="#000000" transform="translate(112.5,298.6875)"/>
<path d="M0 0 C2.03469696 -0.00958294 4.06832881 -0.04054311 6.1027832 -0.07226562 C15.17842461 -0.10801409 26.3326705 0.01093558 33.63598633 6.24023438 C39.34821298 14.02518327 40.47695376 20.61456665 39.63598633 30.24023438 C38.21858123 34.78014081 36.07425059 37.98915356 32.63598633 41.24023438 C33.41117337 44.39269374 33.41117337 44.39269374 36.01098633 46.36523438 C40.79762701 51.6077456 42.202622 57.96600648 41.92114258 64.97851562 C41.04855099 71.89948179 38.73835952 77.36463332 33.63598633 82.24023438 C26.87697802 86.51774065 20.67073286 87.39549171 12.74536133 87.37304688 C12.00014221 87.3740036 11.2549231 87.37496033 10.48712158 87.37594604 C8.92053136 87.37662383 7.35393827 87.37479765 5.78735352 87.37060547 C3.38006377 87.36522113 0.97295804 87.37057946 -1.43432617 87.37695312 C-2.95776409 87.37629287 -4.48120188 87.37501279 -6.00463867 87.37304688 C-6.72750061 87.37507111 -7.45036255 87.37709534 -8.19512939 87.37918091 C-13.24904147 87.35520657 -13.24904147 87.35520657 -14.36401367 86.24023438 C-14.45912633 83.59285348 -14.48957002 80.97164437 -14.47753906 78.32397461 C-14.47768509 77.49477509 -14.47783112 76.66557556 -14.47798157 75.81124878 C-14.47728218 73.05708239 -14.4694886 70.30298277 -14.46166992 67.54882812 C-14.45980583 65.64453671 -14.45838189 63.74024482 -14.4573822 61.83595276 C-14.4535563 56.81355475 -14.4437254 51.79118546 -14.43267822 46.76879883 C-14.42246565 41.64795317 -14.41788491 36.52710289 -14.4128418 31.40625 C-14.4021032 21.35089881 -14.38502591 11.29556898 -14.36401367 1.24023438 C-10.14390559 -0.86981967 -4.64130445 0.01319333 0 0 Z M-0.36401367 14.24023438 C-0.46317938 15.86280982 -0.49481144 17.48963269 -0.49682617 19.11523438 C-0.49811523 20.10007812 -0.4994043 21.08492188 -0.50073242 22.09960938 C-0.49686523 23.13601563 -0.49299805 24.17242187 -0.48901367 25.24023438 C-0.49288086 26.27664063 -0.49674805 27.31304687 -0.50073242 28.38085938 C-0.49944336 29.36570312 -0.4981543 30.35054688 -0.49682617 31.36523438 C-0.49569824 32.2753125 -0.49457031 33.18539062 -0.4934082 34.12304688 C-0.59961376 36.22551917 -0.59961376 36.22551917 0.63598633 37.24023438 C8.23067796 37.76274916 16.83905336 38.2583093 23.07348633 33.30273438 C25.70249923 29.83243734 25.98434869 26.53291507 25.91333008 22.24023438 C25.45766731 18.95432819 24.0648351 17.41341486 21.63598633 15.24023438 C16.9428899 13.26238023 12.88846661 12.99805843 7.82348633 13.05273438 C6.80351562 13.05370117 6.80351562 13.05370117 5.76293945 13.0546875 C2.41455678 12.80432321 2.41455678 12.80432321 -0.36401367 14.24023438 Z M-0.36401367 49.24023438 C-0.39288118 53.38605324 -0.41076695 57.53184654 -0.42651367 61.67773438 C-0.43489258 62.86173828 -0.44327148 64.04574219 -0.4519043 65.265625 C-0.45512695 66.39033203 -0.45834961 67.51503906 -0.46166992 68.67382812 C-0.46690674 69.71595459 -0.47214355 70.75808105 -0.47753906 71.83178711 C-0.63706923 74.19152185 -0.63706923 74.19152185 0.63598633 75.24023438 C7.81264415 75.69945504 15.88222517 76.09927798 22.63598633 73.24023438 C26.19435365 69.77082624 27.47283213 66.93703802 27.94848633 61.99023438 C27.55007197 57.20926206 26.39329568 55.14642262 23.63598633 51.24023438 C20.21262522 48.92673006 16.81744557 48.81880321 12.76098633 48.55273438 C11.56731445 48.46636719 10.37364258 48.38 9.14379883 48.29101562 C5.81220332 48.2427854 2.90275583 48.64911831 -0.36401367 49.24023438 Z " fill="#000000" transform="translate(176.364013671875,298.759765625)"/>
<path d="M0 0 C0.495 0.495 0.495 0.495 1 1 C0.65623457 7.98989718 0.65623457 7.98989718 -1.54296875 11.375 C-4 13 -4 13 -7.7578125 12.48046875 C-9.21855001 12.06677156 -10.67420351 11.63481307 -12.125 11.1875 C-21.50414891 8.62077691 -21.50414891 8.62077691 -31 10 C-34.2539921 11.91911456 -34.2539921 11.91911456 -36 15 C-36.78691462 19.32803041 -36.52204901 21.21904005 -34.0703125 24.88671875 C-30.54054102 28.92101257 -25.96803298 30.9884244 -21.25 33.375 C-2.03034095 43.53018454 -2.03034095 43.53018454 1 53 C2.77681129 61.22127764 1.75211679 67.72947394 -2.8125 74.8125 C-9.03281737 81.03281737 -15.82321564 83.21985004 -24.45849609 83.32885742 C-25.21469238 83.32345947 -25.97088867 83.31806152 -26.75 83.3125 C-27.53842285 83.30903564 -28.3268457 83.30557129 -29.13916016 83.30200195 C-36.71022159 83.16168226 -45.32465458 82.58422749 -51 77 C-51.2421875 74.84375 -51.2421875 74.84375 -50.875 72.5 C-50.76929688 71.7265625 -50.66359375 70.953125 -50.5546875 70.15625 C-50 68 -50 68 -48 65 C-45.62783027 65.38260802 -43.3927688 65.84355819 -41.15625 66.734375 C-33.66724117 69.69644566 -24.90350414 70.53401974 -17.140625 68.10546875 C-14.84844295 67.1881421 -14.84844295 67.1881421 -14 65 C-13.51510045 60.79753722 -13.55221186 58.67855012 -15.91015625 55.10546875 C-19.46677736 51.07370726 -24.07707754 48.95634491 -28.8125 46.5625 C-37.25356877 42.27587224 -46.38873229 37.46869038 -50.37890625 28.37109375 C-52.37219477 20.76149544 -51.96952001 12.80489145 -48 6 C-44.07846578 -0.02235612 -38.96023116 -2.73223904 -32.125 -4.25 C-21.6003576 -6.02524089 -9.28321523 -5.7706473 0 0 Z " fill="#000000" transform="translate(464,304)"/>
<path d="M0 0 C0.99128906 -0.00257813 1.98257812 -0.00515625 3.00390625 -0.0078125 C5.4375 0.125 5.4375 0.125 6.4375 1.125 C6.59405027 2.61138992 6.68816943 4.10449127 6.75390625 5.59765625 C6.79580078 6.49677734 6.83769531 7.39589844 6.88085938 8.32226562 C6.92017578 9.26779297 6.95949219 10.21332031 7 11.1875 C7.04318359 12.13689453 7.08636719 13.08628906 7.13085938 14.06445312 C7.23729276 16.41781353 7.33931008 18.77128354 7.4375 21.125 C8.49710937 21.11339844 9.55671875 21.10179687 10.6484375 21.08984375 C12.03645658 21.08046524 13.42447755 21.07136511 14.8125 21.0625 C15.51117188 21.05412109 16.20984375 21.04574219 16.9296875 21.03710938 C22.2109375 21.01171875 22.2109375 21.01171875 24.4375 22.125 C24.46437279 23.93742052 24.48383715 25.74995233 24.5 27.5625 C24.51160156 28.57183594 24.52320313 29.58117187 24.53515625 30.62109375 C24.4375 33.125 24.4375 33.125 23.4375 34.125 C20.57482433 34.19825168 17.736781 34.21738205 14.875 34.1875 C14.06869141 34.18298828 13.26238281 34.17847656 12.43164062 34.17382812 C10.43356244 34.16200518 8.43552217 34.14406914 6.4375 34.125 C6.55589052 39.17886681 6.6801487 44.23254269 6.80981445 49.28613281 C6.85309016 51.00484305 6.89477041 52.72359424 6.93481445 54.44238281 C6.99269565 56.914839 7.05633836 59.38709047 7.12109375 61.859375 C7.13780624 62.62618591 7.15451874 63.39299683 7.17173767 64.18304443 C7.26762865 67.64673984 7.51665862 70.78866251 8.4375 74.125 C10.13519531 74.18107422 10.13519531 74.18107422 11.8671875 74.23828125 C13.34899205 74.30393082 14.83076139 74.37037851 16.3125 74.4375 C17.05886719 74.46005859 17.80523437 74.48261719 18.57421875 74.50585938 C20.537104 74.60311945 22.49078322 74.85542294 24.4375 75.125 C26.8669516 78.7691774 26.59929575 80.83741272 26.4375 85.125 C18.99700444 88.62640968 11.28149912 89.4338123 3.1875 87.62109375 C-0.92499082 86.07004657 -3.36424297 83.87017864 -5.5625 80.125 C-7.39958756 74.15778445 -7.84177223 68.35729579 -7.7578125 62.15234375 C-7.7549826 61.34382462 -7.75215271 60.53530548 -7.74923706 59.70228577 C-7.73816777 57.15553082 -7.71308958 54.6091461 -7.6875 52.0625 C-7.67745302 50.32096867 -7.6683302 48.57943175 -7.66015625 46.83789062 C-7.63827213 42.60012083 -7.60383646 38.36262287 -7.5625 34.125 C-8.84447266 34.14240234 -8.84447266 34.14240234 -10.15234375 34.16015625 C-11.25707031 34.16917969 -12.36179687 34.17820312 -13.5 34.1875 C-14.60214844 34.19910156 -15.70429688 34.21070313 -16.83984375 34.22265625 C-19.5625 34.125 -19.5625 34.125 -20.5625 33.125 C-20.63476502 31.27212498 -20.6463122 29.41666122 -20.625 27.5625 C-20.61597656 26.55058594 -20.60695313 25.53867187 -20.59765625 24.49609375 C-20.58605469 23.71363281 -20.57445312 22.93117188 -20.5625 22.125 C-16.5625 21.125 -16.5625 21.125 -7.5625 21.125 C-7.5625 14.525 -7.5625 7.925 -7.5625 1.125 C-4.93920316 -0.18664842 -2.92551375 -0.00762846 0 0 Z " fill="#000000" transform="translate(488.5625,298.875)"/>
<path d="M0 0 C0.66 0.33 1.32 0.66 2 1 C2.02312283 12.06534858 2.04091478 23.13069145 2.05181217 34.19605923 C2.05704113 39.33359566 2.06413901 44.47111563 2.07543945 49.60864258 C2.08626787 54.5623141 2.09227674 59.51596974 2.09487724 64.46965218 C2.09673157 66.36397616 2.10035234 68.25829924 2.10573006 70.1526165 C2.11293989 72.79634386 2.11399097 75.44000471 2.11352539 78.08374023 C2.11712067 78.87495773 2.12071594 79.66617523 2.12442017 80.48136902 C2.11405216 85.88594784 2.11405216 85.88594784 1 87 C-1.328125 87.37890625 -1.328125 87.37890625 -4.25 87.5625 C-5.20390625 87.64628906 -6.1578125 87.73007812 -7.140625 87.81640625 C-11.05756233 86.69804573 -11.79373802 84.8068785 -13.72216797 81.35180664 C-14.35469482 80.18766235 -14.35469482 80.18766235 -15 79 C-15.93694049 77.47189074 -16.88389144 75.94988217 -17.83984375 74.43359375 C-25.96697936 61.33339082 -33.99709807 48.1764951 -42 35 C-42.33 52.16 -42.66 69.32 -43 87 C-53.125 88.125 -53.125 88.125 -57 86 C-57.02312297 75.06503529 -57.04091485 64.13007634 -57.05181217 53.1950922 C-57.0570411 48.11808982 -57.06413892 43.04110411 -57.07543945 37.96411133 C-57.08626799 33.06879448 -57.09227676 28.17349371 -57.09487724 23.27816582 C-57.09673155 21.40617049 -57.10035228 19.53417609 -57.10573006 17.66218758 C-57.11294004 15.04959301 -57.11399096 12.43706573 -57.11352539 9.82446289 C-57.11712067 9.04259613 -57.12071594 8.26072937 -57.12442017 7.45516968 C-57.11405216 2.11405216 -57.11405216 2.11405216 -56 1 C-54.07421875 0.7265625 -54.07421875 0.7265625 -51.6875 0.625 C-50.90761719 0.57601563 -50.12773438 0.52703125 -49.32421875 0.4765625 C-45.1053869 1.42668597 -43.29754923 5.53100356 -41.08398438 9.02001953 C-40.42720703 10.12974121 -39.77042969 11.23946289 -39.09375 12.3828125 C-38.73187592 12.99093781 -38.37000183 13.59906311 -37.99716187 14.22561646 C-37.2260507 15.52177629 -36.45650539 16.81886878 -35.68841553 18.11682129 C-33.68825163 21.4966884 -31.67745969 24.87019029 -29.6640625 28.2421875 C-29.26599396 28.90895508 -28.86792542 29.57572266 -28.45779419 30.26269531 C-24.55063748 36.78650715 -20.49829822 43.21486895 -16.35351562 49.59033203 C-13 54.79501715 -13 54.79501715 -13 57 C-12.34 57 -11.68 57 -11 57 C-11 38.52 -11 20.04 -11 1 C-7.10835652 -0.29721449 -4.10570774 -0.13033993 0 0 Z " fill="#000000" transform="translate(81,299)"/>
<path d="M0 0 C5.83253294 4.72269873 7.88416411 12.0401811 9.5 19.125 C10.20826005 32.1097675 10.12134149 44.91144525 1.375 55.3125 C-6.68384937 62.05944366 -13.99239853 63.28853729 -24.3125 62.5625 C-29.96216032 61.41226976 -34.04259461 59.50552268 -38.3125 55.5625 C-40.078125 52.72265625 -40.078125 52.72265625 -41.5625 49.625 C-42.06265625 48.60535156 -42.5628125 47.58570313 -43.078125 46.53515625 C-47.24104767 36.50988995 -47.16816088 20.73294159 -43.35546875 10.6015625 C-39.96847644 3.97980225 -35.64096875 -1.50593008 -28.4375 -4.1171875 C-18.5030319 -6.95006317 -8.73389878 -5.57587888 0 0 Z M-28.3125 11.5625 C-33.63554052 20.00594358 -33.0973313 31.8242316 -31.05078125 41.27734375 C-30.06132404 44.33994941 -28.65230569 46.36893217 -26.3125 48.5625 C-22.35349172 50.54200414 -17.62756628 49.97694139 -13.3125 49.5625 C-9.86394662 48.14612986 -8.18231582 47.04317884 -6.2890625 43.8203125 C-2.62754999 34.91847015 -2.83923839 23.19599959 -6.390625 14.30078125 C-8.37156939 10.56552593 -10.3467415 8.8844195 -14.3125 7.5625 C-20.33838797 7.06857476 -23.63360014 7.31884664 -28.3125 11.5625 Z " fill="#000000" transform="translate(271.3125,324.4375)"/>
<path d="M0 0 C8.38798472 8.84702866 9.40064689 19.88276311 9.3203125 31.53125 C8.81325989 40.6689853 6.24332093 49.64143039 -0.41796875 56.2578125 C-7.73256349 61.80457836 -15.77363733 62.34851107 -24.6796875 61.53125 C-31.21627292 60.1008061 -36.09284383 57.27144892 -40.20703125 51.9609375 C-47.00282405 40.74878067 -47.01591144 27.06377613 -45.2421875 14.41015625 C-43.51968291 7.50937226 -39.52537712 1.21877827 -33.65625 -2.8828125 C-23.14552663 -8.48047744 -9.14604417 -7.99747118 0 0 Z M-27.6796875 9.53125 C-32.08686877 14.94068745 -32.0568061 21.43380952 -32.1171875 28.09375 C-32.12733887 28.89683594 -32.13749023 29.69992187 -32.14794922 30.52734375 C-32.05783184 36.72132676 -31.24892723 42.96201027 -26.6796875 47.53125 C-21.02055533 49.41762739 -15.14897251 49.66300563 -9.6796875 47.15625 C-3.84219444 39.49454036 -3.89162801 29.78285247 -4.6796875 20.53125 C-5.52691997 15.90102605 -6.74671792 12.62886127 -9.8046875 9.03125 C-15.77769353 5.91489903 -22.17241565 5.17666296 -27.6796875 9.53125 Z " fill="#000000" transform="translate(333.6796875,325.46875)"/>
<path d="M0 0 C6.46510258 5.07711445 9.41898634 11.77441216 11.57421875 19.56640625 C12.37040772 32.57082616 12.39553682 46.83525394 3.34765625 57.2578125 C-2.46014958 62.45999151 -8.6376489 64.13495164 -16.23828125 64.00390625 C-17.24761719 64.02130859 -17.24761719 64.02130859 -18.27734375 64.0390625 C-25.69475668 63.99610451 -31.25219877 61.30199292 -36.66796875 56.34765625 C-43.95638242 48.37028806 -44.6392676 36.86093429 -44.42578125 26.546875 C-43.81110557 16.98098478 -41.66414233 8.6113893 -34.61328125 1.81640625 C-24.72141192 -6.23682566 -10.77842932 -6.60249336 0 0 Z M-26.98828125 13.25390625 C-31.36805236 21.57547136 -31.65832775 32.66222757 -29.05078125 41.56640625 C-27.50019141 45.52184607 -25.76324001 48.12226891 -22.23828125 50.62890625 C-18.00497876 52.05486077 -14.80413147 51.77036881 -10.48828125 50.69140625 C-5.42917672 47.48082068 -3.93480406 43.35695391 -2.48828125 37.69140625 C-1.77941324 29.00777308 -1.96567704 21.09295022 -5.98828125 13.19140625 C-9.18429087 9.5515064 -12.04939513 8.90251702 -16.73828125 8.31640625 C-20.84139583 8.82929557 -23.96655321 10.44801592 -26.98828125 13.25390625 Z " fill="#000000" transform="translate(565.23828125,323.37109375)"/>
<path d="M0 0 C1.81640625 1.359375 1.81640625 1.359375 3 3 C2.79845659 7.53472667 1.40489493 11.16998215 -1 15 C-3.65414936 16.3762256 -5.73200419 15.96339979 -8.75 15.8125 C-13.44637856 15.74214227 -17.17701421 17.31673063 -21 20 C-23.03686386 23.05529579 -23.2545245 23.71654391 -23.30297852 27.16430664 C-23.32794151 28.41559105 -23.32794151 28.41559105 -23.35340881 29.69215393 C-23.36182297 30.5890947 -23.37023712 31.48603546 -23.37890625 32.41015625 C-23.39590073 33.33340195 -23.4128952 34.25664764 -23.43040466 35.20787048 C-23.48356821 38.15934405 -23.52384826 41.11080347 -23.5625 44.0625 C-23.60640686 47.0176953 -23.65309117 49.97278075 -23.70530701 52.92784119 C-23.73729537 54.76740794 -23.76417569 56.60707177 -23.78553772 58.4467926 C-23.79902756 59.27783005 -23.8125174 60.10886749 -23.82641602 60.96508789 C-23.83592789 61.69772354 -23.84543976 62.43035919 -23.85523987 63.18519592 C-24 65 -24 65 -25 67 C-26.97909398 67.02686553 -28.95828971 67.04633375 -30.9375 67.0625 C-32.03964844 67.07410156 -33.14179687 67.08570313 -34.27734375 67.09765625 C-37 67 -37 67 -38 66 C-38.09930533 64.01112506 -38.12799462 62.01869583 -38.12939453 60.02734375 C-38.13254669 58.74931885 -38.13569885 57.47129395 -38.13894653 56.15454102 C-38.13715675 54.74886033 -38.1351058 53.34317995 -38.1328125 51.9375 C-38.13348558 50.50642887 -38.13445564 49.07535785 -38.13571167 47.64428711 C-38.13718844 44.64142776 -38.13503476 41.6385981 -38.13037109 38.63574219 C-38.12467381 34.77847429 -38.12795292 30.92127596 -38.13394356 27.06401062 C-38.13754974 24.10786409 -38.13641032 21.15173417 -38.13381577 18.19558716 C-38.13314665 16.77295931 -38.13397437 15.35032997 -38.13629532 13.92770386 C-38.13882274 11.94268826 -38.13429042 9.95766741 -38.12939453 7.97265625 C-38.12859894 6.84093994 -38.12780334 5.70922363 -38.12698364 4.54321289 C-38 2 -38 2 -37 1 C-34.98035801 0.92755947 -32.95832876 0.91622812 -30.9375 0.9375 C-29.28041016 0.95103516 -29.28041016 0.95103516 -27.58984375 0.96484375 C-26.73519531 0.97644531 -25.88054688 0.98804688 -25 1 C-24.34 2.65 -23.68 4.3 -23 6 C-22.26136719 5.566875 -21.52273438 5.13375 -20.76171875 4.6875 C-13.96308784 0.95559587 -7.84810659 -1.73654503 0 0 Z " fill="#000000" transform="translate(625,319)"/>
<path d="M0 0 C6.03859049 6.4598875 7.82024291 14.27492837 7.875 22.9375 C7.88917969 23.95972656 7.90335938 24.98195313 7.91796875 26.03515625 C7.68379099 28.92070251 7.39368666 30.54446743 5.6875 32.875 C2.02074481 34.20493992 -1.84782287 34.0965583 -5.703125 34.19140625 C-6.40773865 34.21218735 -7.11235229 34.23296844 -7.83831787 34.25437927 C-10.07961681 34.31953837 -12.32102864 34.37860248 -14.5625 34.4375 C-16.08594897 34.48071726 -17.60938671 34.52433257 -19.1328125 34.56835938 C-22.85925591 34.67518491 -26.58582494 34.77654639 -30.3125 34.875 C-30.02949752 36.32463503 -29.73576235 37.77217761 -29.4375 39.21875 C-29.27507813 40.02505859 -29.11265625 40.83136719 -28.9453125 41.66210938 C-28.10362539 44.60541647 -26.73803477 46.05584892 -24.3125 47.875 C-18.98729846 50.53760077 -9.83973845 49.65090287 -4.25 47.8125 C-1.04324585 46.78906782 0.56610658 46.62644263 3.6875 47.875 C5.30801322 50.03568429 5.66094656 51.72326603 6.125 54.375 C5.6875 56.875 5.6875 56.875 3.6875 59.0625 C-5.11835059 64.3827014 -17.52298539 64.23634938 -27.390625 62.2578125 C-34.3219256 59.85524512 -38.93398211 55.32484712 -42.37109375 48.89453125 C-44.39744084 44.03711551 -45.0252898 39.09863557 -45.3125 33.875 C-45.35375 33.16601562 -45.395 32.45703125 -45.4375 31.7265625 C-45.74946202 20.92487759 -44.07436151 10.53775422 -37 2.125 C-25.97154576 -7.10812448 -12.10157844 -7.76327674 0 0 Z M-27.3125 10.875 C-30.23290659 15.40666539 -30.3125 17.20992809 -30.3125 22.875 C-22.3925 22.875 -14.4725 22.875 -6.3125 22.875 C-6.49086437 13.68879542 -6.49086437 13.68879542 -9.25 9.75 C-14.85540419 6.31811989 -22.28176837 6.30160761 -27.3125 10.875 Z " fill="#000000" transform="translate(676.3125,324.125)"/>
</svg>
